# xmcd
#
# Track frame offsets: 
#        150
#        10555
#        31747
#        47507
#        70822
#        89695
#        110780
#        131477
#        148260
#        169122
#        192010
#        208722
#
# Disc length: 2995 seconds
#
# Revision: 1
# Processed by: cddbd v1.5.2PL0 Copyright (c) Steve Scherf et al.
# Submitted via: ExactAudioCopyFreeDBPlugin 1.0
#
DISCID=a40bb10c
DTITLE=卓依婷 - DTS51蝴蝶情事5
DYEAR=2005
DGENRE=DTS
TTITLE0=奉献
TTITLE1=烛光里的妈妈
TTITLE2=角落之歌
TTITLE3=我爱你中国
TTITLE4=相约
TTITLE5=重返故里
TTITLE6=渴望
TTITLE7=心有千千结
TTITLE8=涛声依旧
TTITLE9=信天游
TTITLE10=月亮走我也走
TTITLE11=好人一生平安
EXTD=
EXTT0=
EXTT1=
EXTT2=
EXTT3=
EXTT4=
EXTT5=
EXTT6=
EXTT7=
EXTT8=
EXTT9=
EXTT10=
EXTT11=
PLAYORDER=
